<svg width="223" height="247" viewBox="0 0 223 247" fill="none" xmlns="http://www.w3.org/2000/svg">
    <g clip-path="url(#clip0_5462_2976)">
        <path d="M118.746 177.375L39.1407 222.968C36.8999 224.249 32.9918 224.092 30.4018 222.608L2.14207 206.424C-0.441372 204.94 -0.72476 202.704 1.51598 201.423L81.1217 155.831C83.3624 154.55 87.2705 154.707 89.8605 156.19L118.12 172.375C120.704 173.859 120.987 176.094 118.746 177.375Z" fill="#E0E0E0"/>
        <path d="M12.1783 52.8284C12.1783 48.9523 14.2609 45.3703 17.6483 43.4354L87.1904 3.60837C89.2467 2.43179 91.7378 3.53647 92.3903 5.60855C92.0146 3.99402 90.9997 2.5756 89.5301 1.70624L89.2796 1.56243C87.5463 0.542736 85.5758 0.000203972 83.5591 0.000203972C82.9462 -0.00633256 82.3201 0.144008 81.727 0.483907L12.1849 40.3044C8.80401 42.2393 6.71484 45.8213 6.71484 49.6974V198.855C6.71484 201.587 9.7003 203.299 12.086 201.933L12.1783 201.881V52.8284Z" fill="#37474F"/>
        <path d="M87.091 165.237L17.5489 205.057C15.1632 206.423 12.1777 204.717 12.1777 201.978V52.828C12.1777 48.9518 14.2603 45.3698 17.6478 43.435L87.1899 3.60792C89.5756 2.24178 92.5611 3.94781 92.5611 6.68662V155.844C92.5611 159.72 90.4785 163.302 87.091 165.237Z" fill="#455A64"/>
        <path d="M12.1783 201.985V52.8282C12.1783 51.1744 12.5605 49.573 13.2591 48.1349L7.88135 44.834C7.13004 46.3178 6.71484 47.9846 6.71484 49.7037V200.109C6.71484 201.312 7.35411 202.43 8.3954 203.044L11.17 204.685C12.1322 205.254 13.2262 205.554 14.3465 205.554H15.7174C13.8654 205.528 12.1783 204.051 12.1783 201.998V201.985Z" fill="#263238"/>
        <path d="M84.7002 17.9499V143.321C84.7002 146.746 82.8615 149.903 79.8694 151.615L18.4599 186.782C17.9656 187.063 17.445 187.194 16.9375 187.2C17.6493 188.834 19.7121 189.651 21.4256 188.664L82.8351 153.498C85.8206 151.785 87.6659 148.622 87.6659 145.203V21.0744C87.6659 19.316 86.2753 18.0479 84.7002 17.9434V17.9499Z" fill="#37474F"/>
        <path d="M16.9367 187.195C17.4442 187.188 17.9648 187.058 18.4591 186.777L79.8686 151.61C82.8541 149.898 84.6994 146.734 84.6994 143.315V17.9512C84.9894 17.9708 83.7768 17.8727 82.92 18.363L21.5105 53.5295C18.525 55.2421 16.6797 58.4057 16.6797 61.8244V185.953C16.6797 186.411 16.7785 186.835 16.9433 187.221C16.9433 187.221 16.9433 187.208 16.9367 187.202V187.195Z" fill="#FFBB38"/>
        <g opacity="0.5">
            <path d="M16.9367 187.195C17.4442 187.188 17.9648 187.058 18.4591 186.777L79.8686 151.61C82.8541 149.898 84.6994 146.734 84.6994 143.315V17.9512C84.9894 17.9708 83.7768 17.8727 82.92 18.363L21.5105 53.5295C18.525 55.2421 16.6797 58.4057 16.6797 61.8244V185.953C16.6797 186.411 16.7785 186.835 16.9433 187.221C16.9433 187.221 16.9433 187.208 16.9367 187.202V187.195Z" fill="white"/>
        </g>
        <path d="M42.6402 35.1464C42.6402 35.8458 42.1459 36.6956 41.533 37.0486C40.9201 37.395 40.4258 37.1139 40.4258 36.4145C40.4258 35.7151 40.9201 34.8653 41.533 34.5124C42.1459 34.1594 42.6402 34.447 42.6402 35.1464Z" fill="#263238"/>
        <path d="M46.7534 32.7939C46.7534 33.4934 46.2592 34.3431 45.6463 34.6961C45.0333 35.0425 44.5391 34.7614 44.5391 34.062C44.5391 33.3626 45.0333 32.5129 45.6463 32.1599C46.2592 31.8135 46.7534 32.0945 46.7534 32.7939Z" fill="#263238"/>
        <path d="M63.3596 24.5514L49.981 32.2122C49.4538 32.5129 49.0254 32.1926 49.0254 31.4932C49.0254 30.7938 49.4538 29.9833 49.981 29.6761L63.3596 22.0152C63.8868 21.7146 64.3152 22.0348 64.3152 22.7343C64.3152 23.4337 63.8868 24.2442 63.3596 24.5514Z" fill="#263238"/>
        <path d="M61.093 169.943C61.8904 169.943 62.4111 170.786 62.4111 172.087C62.4111 174.133 61.1193 176.597 59.5969 177.466L53.1977 181.127C52.8549 181.323 52.5386 181.421 52.242 181.421C51.4446 181.421 50.924 180.578 50.924 179.277C50.924 177.231 52.2157 174.767 53.7381 173.898L60.1374 170.237C60.4801 170.041 60.7964 169.943 61.093 169.943ZM61.093 169.4C60.7173 169.4 60.3021 169.518 59.8672 169.766L53.4679 173.427C51.7609 174.401 50.377 177.022 50.377 179.277C50.377 180.957 51.1414 181.957 52.242 181.957C52.6177 181.957 53.0329 181.839 53.4679 181.591L59.8672 177.931C61.5741 176.957 62.9581 174.335 62.9581 172.08C62.9581 170.4 62.1936 169.4 61.093 169.4Z" fill="#263238"/>
        <path d="M25.7422 70.6075V211.136C25.7422 213.679 26.6846 215.392 28.1279 215.954L28.1675 215.967H28.1741L34.2966 219.3L34.2636 213.895L33.5848 68.1759L27.1196 64.8945C26.2628 66.7117 25.7422 68.7315 25.7422 70.6075Z" fill="#E6E6E6"/>
        <path d="M34.6321 219.849L28.0021 216.247C26.3611 215.574 25.4121 213.672 25.4121 211.129V70.6066C25.4121 68.7568 25.913 66.6782 26.8159 64.7564L26.9609 64.4492L33.9072 67.9724V68.1685L34.586 213.887L34.6255 219.849H34.6321ZM28.3317 215.685L33.9665 218.744L33.9335 213.894L33.2547 68.3777L27.2772 65.3447C26.4995 67.0965 26.0777 68.9529 26.0777 70.6066V211.135C26.0777 213.43 26.8884 215.116 28.2526 215.646L28.3383 215.685H28.3317Z" fill="#E6E6E6"/>
        <path d="M27.1199 64.8938L33.5851 68.1752L102.791 28.2435L107.411 25.5766L101.025 22.0077L100.84 21.9031C99.8254 21.2887 98.4875 21.3279 97.0179 22.1711L31.5091 59.6842C29.7429 60.6908 28.1677 62.6387 27.1133 64.8938H27.1199Z" fill="#E0E0E0"/>
        <path d="M33.5848 68.5024C33.5321 68.5024 33.4794 68.4894 33.4333 68.4697L26.9681 65.1884C26.8099 65.11 26.744 64.9204 26.8165 64.757C27.9434 62.3581 29.591 60.4037 31.3507 59.4036L96.8594 21.8904C98.3752 21.0211 99.8515 20.923 101.011 21.6224C101.031 21.6355 101.044 21.6421 101.058 21.6551L101.189 21.7336L107.569 25.296C107.674 25.3548 107.734 25.4594 107.734 25.577C107.734 25.6947 107.674 25.8058 107.569 25.8647L33.7496 68.4567C33.6969 68.4894 33.6442 68.5024 33.5848 68.5024ZM27.5546 64.7505L33.5717 67.803L106.745 25.5836L100.675 22.1846C100.675 22.1846 100.642 22.165 100.623 22.1519C99.6801 21.6159 98.4609 21.727 97.189 22.4591L31.6802 59.9723C30.1051 60.8743 28.6157 62.6065 27.5546 64.757V64.7505Z" fill="#E0E0E0"/>
        <path d="M32.0879 74.1364V214.031C32.0879 216.234 32.7931 217.822 33.9266 218.561L34.2957 218.764C35.2777 219.228 36.5101 219.123 37.8545 218.358L69.5215 200.226L103.363 180.022C106.546 178.198 109.136 174.119 109.136 169.916V30.0279C109.136 27.897 108.477 26.3544 107.41 25.5765C107.225 25.4458 107.034 25.3281 106.823 25.2497C105.861 24.8444 104.662 24.9621 103.363 25.7007L37.8545 63.8479C36.1542 64.8153 34.6318 66.0311 33.5839 68.1751C32.6547 70.0511 32.0879 72.1689 32.0879 74.1429V74.1364Z" fill="#FAFAFA"/>
        <path d="M103.358 180.022C89.8808 187.997 54.8132 208.757 37.454 219.124C35.1803 220.483 32.2871 218.856 32.2871 216.221V72.3784C32.2871 69.0514 34.0665 65.9661 36.9663 64.2862L103.675 25.5115C105.948 24.1912 108.808 25.8188 108.808 28.4268V170.505C108.808 174.407 106.739 178.022 103.358 180.022Z" fill="#FAFAFA"/>
        <path d="M103.193 179.74C92.6089 186.002 82.0313 192.264 71.4537 198.539C65.1928 202.252 58.9319 205.965 52.671 209.684C49.8107 211.384 46.9505 213.083 44.0968 214.783C42.8447 215.528 41.5991 216.273 40.3469 217.018C39.1936 217.705 37.9677 218.685 36.6892 219.123C34.5737 219.849 32.669 218.175 32.6163 216.103C32.6097 215.77 32.6163 215.436 32.6163 215.096V83.2089C32.6163 79.6988 32.6097 76.1821 32.6163 72.672C32.6229 69.2142 34.3101 66.2205 37.3219 64.4491C38.8509 63.5536 40.3864 62.6646 41.922 61.7756C49.1055 57.5988 56.2891 53.4219 63.4727 49.2516C71.9875 44.3035 80.4957 39.3553 89.0105 34.4072C93.8545 31.5899 98.6853 28.7531 103.542 25.962C105.045 25.0992 106.936 25.1841 107.984 26.7398C108.406 27.3739 108.485 28.0798 108.485 28.8054C108.485 30.0604 108.485 31.3154 108.485 32.5639V169.942C108.485 173.962 106.712 177.583 103.2 179.727C102.837 179.95 103.167 180.512 103.529 180.289C107.194 178.054 109.144 174.243 109.144 170.027V38.839C109.144 35.4203 109.184 32.0083 109.144 28.5897C109.111 25.4848 105.955 23.8311 103.292 25.3476C101.684 26.2692 100.096 27.2039 98.4941 28.1387C91.1129 32.4266 83.7316 36.7211 76.3503 41.0091C67.763 46.003 59.1757 50.9969 50.5818 55.9843C46.0278 58.6316 41.4541 61.2592 36.9133 63.9327C33.7565 65.7891 31.977 69.0116 31.9639 72.6328C31.9639 73.8094 31.9639 74.986 31.9639 76.1625V215.541C31.9639 215.763 31.9573 215.992 31.9639 216.214C32.043 218.678 34.4287 220.561 36.8737 219.75C38.1193 219.339 39.2924 218.41 40.4128 217.744C41.6847 216.985 42.9633 216.227 44.2352 215.462C47.0823 213.763 49.9359 212.07 52.783 210.377C65.2455 202.971 77.7212 195.578 90.1902 188.192C94.6322 185.558 99.0807 182.93 103.523 180.302C103.885 180.087 103.556 179.525 103.193 179.74Z" fill="#EBEBEB"/>
        <path d="M36.9656 64.2804L103.674 25.5057C105.947 24.1853 108.808 25.8129 108.808 28.421V34.6634H108.788L32.293 78.4712V72.3791C32.293 69.052 34.0724 65.9668 36.9722 64.2869L36.9656 64.2804Z" fill="#EBEBEB"/>
        <path d="M82.8034 98.2831C89.5679 86.6623 89.5679 74.1017 82.8034 70.2282C76.0389 66.3546 65.0714 72.6349 58.3069 84.2557C51.5423 95.8764 51.5423 108.437 58.3068 112.311C65.0713 116.184 76.0388 109.904 82.8034 98.2831Z" fill="#FFBB38"/>
        <path opacity="0.5" d="M82.8034 98.2831C89.5679 86.6623 89.5679 74.1017 82.8034 70.2282C76.0389 66.3546 65.0714 72.6349 58.3069 84.2557C51.5423 95.8764 51.5423 108.437 58.3068 112.311C65.0713 116.184 76.0388 109.904 82.8034 98.2831Z" fill="white"/>
        <path d="M67.4398 91.3469C67.0114 91.3469 66.6621 91.0004 66.6621 90.5756V85.4967C66.6621 83.2546 68.1977 80.6139 70.155 79.4896C71.2359 78.8686 72.2903 78.7967 73.1273 79.2739C73.9643 79.7511 74.4256 80.6989 74.4256 81.9343V87.0131C74.4256 87.438 74.0763 87.7845 73.648 87.7845C73.2196 87.7845 72.8703 87.438 72.8703 87.0131V81.9343C72.8703 81.2806 72.6792 80.7969 72.3496 80.6074C72.0201 80.4178 71.4995 80.4962 70.9327 80.8231C69.4564 81.6663 68.2109 83.8037 68.2109 85.4967V90.5756C68.2109 91.0004 67.8616 91.3469 67.4332 91.3469H67.4398Z" fill="#37474F"/>
        <path d="M76.8312 83.7443C76.5281 83.6005 76.1458 83.6267 75.7306 83.8685L65.3705 89.8037C64.9553 90.039 64.573 90.4508 64.2699 90.941C63.8613 91.6012 63.5977 92.4118 63.5977 93.1569V102.053C63.5977 102.7 63.7954 103.171 64.1117 103.406C64.171 103.452 64.2303 103.485 64.2897 103.511C64.5862 103.642 64.9553 103.609 65.3639 103.38L75.724 97.4449C76.6994 96.8827 77.4903 95.3859 77.4903 94.0916V85.1954C77.4903 84.4503 77.2266 83.9404 76.818 83.7509L76.8312 83.7443Z" fill="#FFBB38"/>
        <path d="M71.7297 93.0138L72.7314 95.8637L69.2188 97.877L70.0953 94.3603L70.2205 93.8636C69.6274 93.8832 69.2188 93.4256 69.2188 92.6281C69.2188 92.3209 69.2781 92.0006 69.3835 91.6803C69.6669 90.8371 70.2732 90.0135 70.9718 89.6148C71.9406 89.0592 72.7249 89.5102 72.7249 90.6214C72.7249 91.4254 72.3097 92.3471 71.7231 93.0138V93.0334L71.7297 93.0138Z" fill="#455A64"/>
        <path d="M70.0953 94.3538L70.2205 93.857C69.6274 93.8766 69.2188 93.4191 69.2188 92.6216C69.2188 92.3144 69.2781 91.9941 69.3835 91.6738L71.7297 93.0204L72.7314 95.8703L70.1019 94.3603L70.0953 94.3538Z" fill="#37474F"/>
        <path d="M96.1018 124.175L44.9931 153.439C42.8776 154.648 41.1641 153.367 41.1641 150.569V142.889C41.1641 140.091 42.8776 136.843 44.9931 135.634L96.1018 106.369C98.2173 105.16 99.9308 106.441 99.9308 109.239V116.919C99.9308 119.717 98.2173 122.966 96.1018 124.175Z" fill="#FFBB38"/>
        <path d="M54.1936 134.941H53.2051V143.066H54.1936V134.941Z" fill="#FAFAFA"/>
        <path d="M56.985 136.564L49.8906 140.627L50.3849 141.476L57.4793 137.414L56.985 136.564Z" fill="#FAFAFA"/>
        <path d="M51.4337 137.149L50.9395 137.998L55.9563 140.871L56.4506 140.022L51.4337 137.149Z" fill="#FAFAFA"/>
        <path d="M55.7803 134.439L50.7617 143.061L51.6178 143.551L56.6364 134.929L55.7803 134.439Z" fill="#FAFAFA"/>
        <path d="M71.0433 125.842H70.0547V133.967H71.0433V125.842Z" fill="#FAFAFA"/>
        <path d="M73.8424 127.453L66.748 131.516L67.2423 132.365L74.3367 128.302L73.8424 127.453Z" fill="#FAFAFA"/>
        <path d="M68.2912 128.047L67.7969 128.896L72.8137 131.769L73.308 130.92L68.2912 128.047Z" fill="#FAFAFA"/>
        <path d="M72.6299 125.34L67.6113 133.961L68.4674 134.451L73.4861 125.83L72.6299 125.34Z" fill="#FAFAFA"/>
        <path d="M87.8968 116.736H86.9082V124.861H87.8968V116.736Z" fill="#FAFAFA"/>
        <path d="M90.6979 118.356L83.6035 122.418L84.0978 123.267L91.1922 119.205L90.6979 118.356Z" fill="#FAFAFA"/>
        <path d="M85.1388 118.942L84.6445 119.791L89.6614 122.664L90.1557 121.815L85.1388 118.942Z" fill="#FAFAFA"/>
        <path d="M89.4815 116.238L84.4629 124.859L85.319 125.35L90.3376 116.728L89.4815 116.238Z" fill="#FAFAFA"/>
        <path d="M97.6242 134.751C98.3096 134.751 98.6127 135.764 98.6127 136.77V144.451C98.6127 146.784 97.1629 149.589 95.4428 150.576L44.3341 179.84C44.0111 180.023 43.7146 180.121 43.4707 180.121C42.7853 180.121 42.4821 179.108 42.4821 178.101V170.421C42.4821 168.087 43.932 165.283 45.6521 164.296L96.7608 135.032C97.0838 134.849 97.3803 134.751 97.6242 134.751ZM97.6242 133.443C97.1563 133.443 96.6422 133.587 96.1018 133.901L44.9931 163.165C42.8776 164.374 41.1641 167.623 41.1641 170.421V178.101C41.1641 180.186 42.1131 181.428 43.4707 181.428C43.9386 181.428 44.4527 181.284 44.9931 180.97L96.1018 151.706C98.2173 150.497 99.9308 147.249 99.9308 144.451V136.77C99.9308 134.685 98.9818 133.443 97.6242 133.443Z" fill="#FFBB38"/>
        <path d="M64.0149 169.48C63.3932 169.836 62.7817 170.032 62.1803 170.067C61.5817 170.091 61.0346 169.975 60.5391 169.717C60.0463 169.449 59.6479 169.053 59.3438 168.531C59.0397 168.009 58.8925 167.474 58.902 166.927C58.9143 166.369 59.0749 165.852 59.3839 165.374C59.6891 164.89 60.1169 164.49 60.6673 164.175C61.1853 163.878 61.7199 163.714 62.2712 163.682C62.8187 163.643 63.337 163.755 63.826 164.017C64.3151 164.278 64.7285 164.699 65.0664 165.28C65.1039 165.344 65.1438 165.42 65.1862 165.508C65.2285 165.595 65.2671 165.677 65.3019 165.751L61.135 168.137L60.5719 167.17L63.7578 165.346L63.2161 166.017C63.0837 165.775 62.9182 165.594 62.7197 165.476C62.5277 165.353 62.3194 165.292 62.0947 165.292C61.8765 165.288 61.6573 165.349 61.4372 165.475C61.217 165.601 61.0509 165.761 60.9388 165.954C60.8333 166.143 60.7877 166.354 60.8022 166.587C60.8129 166.813 60.8877 167.045 61.0266 167.284L61.1899 167.564C61.34 167.822 61.5213 168.015 61.7338 168.143C61.9527 168.267 62.1926 168.323 62.4534 168.311C62.7105 168.293 62.9782 168.204 63.2566 168.044C63.5157 167.896 63.7152 167.735 63.8552 167.56C63.9979 167.375 64.1149 167.153 64.2061 166.895L65.7631 167.344C65.6719 167.766 65.485 168.157 65.2022 168.517C64.9157 168.87 64.5199 169.191 64.0149 169.48ZM67.8299 159.561C68.2673 159.31 68.7153 159.173 69.174 159.15C69.6287 159.121 70.0633 159.231 70.478 159.482C70.8996 159.73 71.2794 160.143 71.6175 160.724L73.4889 163.939L71.5104 165.072L69.826 162.179C69.5926 161.778 69.3403 161.535 69.069 161.451C68.8007 161.355 68.5207 161.391 68.2291 161.558C68.0209 161.678 67.8581 161.835 67.7409 162.031C67.6197 162.221 67.5668 162.44 67.5823 162.689C67.5978 162.938 67.6961 163.219 67.8772 163.53L69.4589 166.247L67.4803 167.38L64.2083 161.759L66.0931 160.68L67.0228 162.277L66.3867 162.019C66.3644 161.488 66.4824 161.014 66.7406 160.599C66.9947 160.177 67.3578 159.831 67.8299 159.561ZM77.3055 161.878C76.5835 162.292 75.9186 162.437 75.3107 162.315C74.6987 162.186 74.1835 161.762 73.7649 161.043L70.9577 156.221L72.9363 155.088L75.7314 159.89C75.8481 160.09 75.9962 160.217 76.1757 160.271C76.3512 160.318 76.5257 160.292 76.6993 160.193C76.9353 160.057 77.1024 159.883 77.2006 159.67L78.493 160.77C78.3908 160.976 78.2322 161.172 78.0174 161.36C77.8067 161.554 77.5694 161.727 77.3055 161.878ZM71.8435 159.627L70.9863 158.154L75.0788 155.811L75.936 157.283L71.8435 159.627ZM71.8064 182.312C71.1399 182.694 70.4843 182.903 69.8396 182.94C69.1978 182.967 68.6112 182.842 68.08 182.565C67.5517 182.278 67.1245 181.854 66.7985 181.294C66.4725 180.734 66.3146 180.161 66.3249 179.574C66.3381 178.976 66.5103 178.422 66.8415 177.909C67.1687 177.39 67.6273 176.961 68.2174 176.623C68.7728 176.305 69.346 176.129 69.937 176.095C70.524 176.054 71.0796 176.174 71.6039 176.454C72.1282 176.735 72.5715 177.186 72.9337 177.808C72.974 177.878 73.0168 177.959 73.0622 178.053C73.1075 178.147 73.1489 178.234 73.1862 178.314L68.7188 180.872L68.1151 179.835L71.5308 177.879L70.95 178.599C70.808 178.339 70.6307 178.145 70.4179 178.018C70.212 177.887 69.9886 177.822 69.7478 177.821C69.5138 177.817 69.2789 177.882 69.0428 178.018C68.8068 178.153 68.6287 178.324 68.5086 178.531C68.3954 178.734 68.3465 178.96 68.362 179.209C68.3735 179.452 68.4537 179.701 68.6026 179.957L68.7777 180.257C68.9387 180.534 69.133 180.741 69.3608 180.878C69.5956 181.011 69.8527 181.071 70.1324 181.058C70.4079 181.039 70.695 180.943 70.9935 180.772C71.2712 180.613 71.4851 180.44 71.6352 180.253C71.7883 180.055 71.9137 179.817 72.0115 179.54L73.6807 180.022C73.583 180.474 73.3825 180.893 73.0794 181.279C72.7722 181.657 72.3479 182.002 71.8064 182.312ZM75.4759 180.086L72.2039 174.465L74.0888 173.386L75.0426 175.024L74.4898 174.719C74.4109 174.202 74.4985 173.732 74.7527 173.31C75.0028 172.881 75.3951 172.513 75.9297 172.207L76.962 173.981C76.8637 174.018 76.7798 174.057 76.7104 174.097C76.6439 174.126 76.5725 174.162 76.4961 174.206C76.0935 174.437 75.8316 174.734 75.7104 175.098C75.5853 175.456 75.6656 175.88 75.9513 176.371L77.4545 178.953L75.4759 180.086Z" fill="#FFBB38"/>
        <path d="M172.846 47.4684C172.846 48.4162 173.525 49.56 174.368 50.0372C175.212 50.5078 175.89 50.1287 175.89 49.1809C175.89 48.2331 175.212 47.0892 174.368 46.6121C173.525 46.1414 172.846 46.5206 172.846 47.4684Z" fill="#455A64"/>
        <path d="M152.43 53.5599C151.263 53.5599 149.972 53.1808 148.64 52.4356L143.81 49.723C143.651 49.6314 143.592 49.4353 143.684 49.2785C143.777 49.1216 143.974 49.0693 144.133 49.1543L148.963 51.8669C151.046 53.037 152.983 53.2265 154.414 52.3964C155.811 51.5859 156.588 49.8798 156.588 47.5855C156.588 45.0493 157.478 43.1472 159.086 42.2125C160.727 41.2647 162.895 41.4477 165.195 42.7419L173.005 47.128C173.163 47.2195 173.223 47.4156 173.13 47.5724C173.038 47.7293 172.84 47.7816 172.682 47.6966L164.873 43.3106C162.79 42.1406 160.852 41.951 159.422 42.7812C158.019 43.5917 157.247 45.2977 157.247 47.592C157.247 50.1282 156.358 52.0303 154.75 52.9651C154.058 53.3638 153.273 53.5599 152.43 53.5599Z" fill="#455A64"/>
        <path d="M141.818 48.2516C141.818 49.0164 142.372 49.9446 143.051 50.3302C143.73 50.7093 144.283 50.4021 144.283 49.6374C144.283 48.8726 143.73 47.9444 143.051 47.5587C142.372 47.1796 141.818 47.4868 141.818 48.2516Z" fill="#455A64"/>
        <path d="M172.846 104.603C172.846 105.551 173.525 106.695 174.368 107.172C175.212 107.643 175.89 107.263 175.89 106.316C175.89 105.368 175.212 104.224 174.368 103.747C173.525 103.276 172.846 103.655 172.846 104.603Z" fill="#455A64"/>
        <path d="M172.906 105.316C172.854 105.316 172.794 105.303 172.742 105.277L164.932 100.891C160.365 98.3221 156.648 92.0601 156.648 86.9223C156.648 81.7846 153.082 75.9867 148.7 73.5225L143.81 70.7771C143.651 70.6856 143.592 70.4895 143.684 70.3326C143.777 70.1758 143.974 70.1235 144.133 70.2084L149.023 72.9538C153.59 75.5226 157.307 81.7846 157.307 86.9223C157.307 92.0601 160.872 97.858 165.255 100.322L173.064 104.708C173.223 104.8 173.282 104.996 173.19 105.153C173.13 105.257 173.018 105.316 172.906 105.316Z" fill="#455A64"/>
        <path d="M141.818 69.1891C141.818 69.9539 142.372 70.8821 143.051 71.2677C143.73 71.6468 144.283 71.3396 144.283 70.5749C144.283 69.8101 143.73 68.8819 143.051 68.4962C142.372 68.1171 141.818 68.4243 141.818 69.1891Z" fill="#455A64"/>
        <path d="M219.769 41.3039L187.489 23.1716C186.567 22.6421 185.736 22.6814 185.143 23.1716L182.355 25.0868L184.26 27.4203V61.1684C184.26 63.5281 185.71 66.2735 187.489 67.2932L218.965 84.9679L219.11 87.4845L222.05 85.4843C222.636 85.0464 222.999 84.1836 222.999 83.007V47.4417C222.999 45.082 221.549 42.3367 219.769 41.317V41.3039Z" fill="#FFBB38"/>
        <path opacity="0.3" d="M219.769 41.3039L187.489 23.1716C186.567 22.6421 185.736 22.6814 185.143 23.1716L182.355 25.0868L184.26 27.4203V61.1684C184.26 63.5281 185.71 66.2735 187.489 67.2932L218.965 84.9679L219.11 87.4845L222.05 85.4843C222.636 85.0464 222.999 84.1836 222.999 83.007V47.4417C222.999 45.082 221.549 42.3367 219.769 41.317V41.3039Z" fill="black"/>
        <path d="M217.021 87.2888L184.741 69.1565C182.955 68.1368 181.512 65.3914 181.512 63.0318V27.4665C181.512 25.1068 182.962 24.0218 184.741 25.0415L217.021 43.1738C218.807 44.1935 220.25 46.9388 220.25 49.2985V84.8638C220.25 87.2235 218.8 88.3085 217.021 87.2888Z" fill="#FFBB38"/>
        <path d="M210.239 56.5134C210.094 56.5134 209.962 56.4154 209.923 56.2716C209.25 53.7812 208.156 51.3104 206.759 49.1337C206.66 48.9833 206.707 48.7807 206.858 48.6827C207.01 48.5846 207.214 48.6304 207.313 48.7807C208.743 51.0162 209.863 53.5458 210.555 56.1016C210.601 56.2781 210.496 56.4546 210.325 56.5004C210.298 56.5069 210.265 56.5134 210.239 56.5134Z" fill="white"/>
        <path d="M210.983 63.1615C210.983 63.1615 210.97 63.1615 210.963 63.1615C210.779 63.1485 210.647 62.9916 210.654 62.8151C210.68 62.4621 210.687 62.1026 210.687 61.7301C210.687 60.6581 210.588 59.5338 210.39 58.3964C210.357 58.2199 210.482 58.05 210.66 58.0173C210.845 57.9912 211.01 58.1088 211.043 58.2853C211.247 59.4619 211.346 60.6188 211.346 61.7301C211.346 62.1157 211.332 62.4948 211.306 62.8609C211.293 63.0308 211.148 63.1681 210.977 63.1681L210.983 63.1615Z" fill="white"/>
        <path d="M190.824 52.3112C190.653 52.3112 190.514 52.1805 190.494 52.0105C190.442 51.4418 190.422 50.8797 190.422 50.3306C190.422 47.1604 191.285 44.5393 192.847 42.9574C192.972 42.8267 193.183 42.8267 193.315 42.9574C193.447 43.0816 193.447 43.2908 193.315 43.4215C191.872 44.8857 191.074 47.3434 191.074 50.3372C191.074 50.8666 191.101 51.4092 191.147 51.9582C191.16 52.1347 191.028 52.2981 190.85 52.3112C190.837 52.3112 190.83 52.3112 190.824 52.3112Z" fill="white"/>
        <path d="M205.396 47.0229C205.303 47.0229 205.205 46.9837 205.139 46.9053C203.755 45.2254 202.265 43.9312 200.716 43.0618C198.528 41.8329 196.472 41.5976 194.778 42.3755C194.614 42.4539 194.416 42.3755 194.344 42.2186C194.264 42.0552 194.344 41.8591 194.502 41.7872C196.4 40.9113 198.66 41.1597 201.039 42.4997C202.661 43.4082 204.209 44.7548 205.646 46.5C205.758 46.6373 205.738 46.8464 205.6 46.9576C205.541 47.0099 205.462 47.0295 205.389 47.0295L205.396 47.0229Z" fill="white"/>
        <path d="M193.099 52.5665C192.921 52.5665 192.776 52.4293 192.769 52.2528C192.762 52.0501 192.756 51.8475 192.756 51.6449C192.756 49.3244 193.329 47.4288 194.417 46.1673C194.535 46.03 194.746 46.0104 194.885 46.128C195.023 46.2457 195.043 46.4483 194.924 46.5856C193.942 47.7295 193.421 49.4747 193.421 51.6383C193.421 51.8279 193.421 52.024 193.435 52.2135C193.441 52.3966 193.303 52.5469 193.118 52.5534C193.118 52.5534 193.112 52.5534 193.105 52.5534L193.099 52.5665Z" fill="white"/>
        <path d="M195.68 45.8335C195.568 45.8335 195.463 45.7812 195.397 45.6766C195.305 45.5198 195.351 45.3237 195.502 45.2256C196.326 44.7223 197.275 44.5197 198.303 44.6177C198.488 44.6373 198.62 44.7942 198.6 44.9772C198.58 45.1537 198.415 45.2845 198.238 45.2714C197.348 45.1864 196.55 45.3564 195.852 45.7812C195.799 45.8139 195.74 45.827 195.68 45.827V45.8335Z" fill="white"/>
        <path d="M210.24 67.3653C210.108 67.3653 209.99 67.2868 209.937 67.1626L209.548 66.2148C208.764 64.2866 208.349 62.2929 208.355 60.4366C208.355 54.8936 204.928 48.4812 200.724 46.115C200.565 46.0235 200.506 45.8274 200.598 45.6705C200.691 45.5137 200.888 45.4614 201.047 45.5463C205.442 48.0171 209.014 54.6844 209.014 60.4169C209.014 62.208 209.41 64.1232 210.161 65.973L210.55 66.9208C210.616 67.0907 210.537 67.2803 210.365 67.3457C210.326 67.3587 210.286 67.3718 210.24 67.3718V67.3653Z" fill="white"/>
        <path d="M195.114 63.607C194.982 63.607 194.851 63.522 194.804 63.3913C193.144 58.8942 192.761 53.8937 192.755 53.8414C192.742 53.6584 192.88 53.5081 193.058 53.495C193.216 53.4819 193.394 53.6192 193.414 53.7957C193.414 53.8414 193.796 58.7569 195.424 63.1691C195.483 63.339 195.398 63.5286 195.226 63.5874C195.187 63.6005 195.154 63.607 195.114 63.607Z" fill="white"/>
        <path d="M208.302 69.5668C208.17 69.5668 208.045 69.4884 207.992 69.3511L207.115 67.0045C206.186 64.5272 205.699 62.0433 205.699 59.8209V57.252C205.699 54.1995 203.491 50.4802 200.776 48.9572C199.51 48.2447 198.337 48.127 197.48 48.6238C196.643 49.1075 196.175 50.1403 196.175 51.5326V53.8007C196.175 57.1278 196.94 60.8602 198.377 64.5795L199.464 67.3902C199.53 67.5601 199.444 67.7497 199.273 67.815C199.102 67.8804 198.91 67.7954 198.845 67.6255L197.757 64.8148C196.287 61.0171 195.51 57.2063 195.51 53.8007V51.5326C195.51 49.8984 196.09 48.663 197.138 48.0551C198.205 47.4341 199.609 47.5518 201.092 48.3885C203.992 50.0161 206.351 53.9968 206.351 57.252V59.8209C206.351 61.9649 206.826 64.3703 207.728 66.7823L208.605 69.1289C208.671 69.2988 208.579 69.4884 208.407 69.5472C208.368 69.5603 208.328 69.5668 208.295 69.5668H208.302Z" fill="white"/>
        <path d="M205.396 70.5013C205.251 70.5013 205.119 70.4097 205.079 70.2659L204.618 68.7299C203.748 65.808 203.3 62.9973 203.3 60.3762V56.402C203.3 54.7613 202.114 52.7611 200.651 51.9441C199.998 51.578 199.405 51.5126 198.977 51.761C198.562 52.0029 198.331 52.5258 198.331 53.2448C198.331 57.657 199.689 62.7489 202.147 67.586L203.076 69.4031C203.155 69.5665 203.096 69.7626 202.931 69.8411C202.766 69.9195 202.569 69.8541 202.489 69.6973L201.56 67.8801C199.056 62.9581 197.672 57.7616 197.672 53.2448C197.672 52.2905 198.015 51.5584 198.647 51.1989C199.287 50.8328 200.117 50.8917 200.98 51.3819C202.621 52.3036 203.959 54.5587 203.959 56.4085V60.3827C203.959 62.945 204.394 65.6904 205.244 68.5534L205.706 70.0895C205.758 70.2594 205.659 70.4424 205.482 70.4947C205.449 70.5013 205.416 70.5078 205.389 70.5078L205.396 70.5013Z" fill="white"/>
        <path d="M201.706 63.6054C201.554 63.6054 201.416 63.5008 201.383 63.344L201.079 61.9451C200.79 60.6051 200.645 59.2259 200.645 57.8533V54.1667C200.645 53.9836 200.79 53.8398 200.974 53.8398C201.159 53.8398 201.304 53.9836 201.304 54.1667V57.8533C201.304 59.1802 201.449 60.5071 201.725 61.8079L202.029 63.2067C202.068 63.3832 201.956 63.5597 201.778 63.5923C201.752 63.5923 201.732 63.5989 201.706 63.5989V63.6054Z" fill="white"/>
        <path d="M191.542 56.5144C191.377 56.5144 191.232 56.3902 191.213 56.2203L191.021 54.3116C191.002 54.1351 191.134 53.9717 191.318 53.9521C191.516 53.939 191.661 54.0632 191.681 54.2463L191.872 56.1549C191.891 56.3314 191.76 56.4948 191.575 56.5144C191.562 56.5144 191.555 56.5144 191.542 56.5144Z" fill="white"/>
        <path d="M219.769 101.872L187.489 83.74C186.567 83.2105 185.736 83.2497 185.143 83.74L182.355 85.6551L184.26 87.9887V121.737C184.26 124.096 185.71 126.842 187.489 127.862L218.965 145.536L219.11 148.053L222.05 146.053C222.636 145.615 222.999 144.752 222.999 143.575V108.01C222.999 105.65 221.549 102.905 219.769 101.885V101.872Z" fill="#FFBB38"/>
        <path opacity="0.3" d="M219.769 101.872L187.489 83.74C186.567 83.2105 185.736 83.2497 185.143 83.74L182.355 85.6551L184.26 87.9887V121.737C184.26 124.096 185.71 126.842 187.489 127.862L218.965 145.536L219.11 148.053L222.05 146.053C222.636 145.615 222.999 144.752 222.999 143.575V108.01C222.999 105.65 221.549 102.905 219.769 101.885V101.872Z" fill="black"/>
        <path d="M217.021 147.857L184.741 129.725C182.955 128.705 181.512 125.96 181.512 123.6V88.0349C181.512 85.6752 182.962 84.5901 184.741 85.6098L217.021 103.742C218.807 104.762 220.25 107.507 220.25 109.867V145.432C220.25 147.792 218.8 148.877 217.021 147.857Z" fill="#FFBB38"/>
        <path d="M188.695 97.9562C188.51 97.9562 188.365 97.8124 188.365 97.6294V95.4266C188.365 94.9821 188.596 94.5768 188.991 94.3546C189.393 94.1258 189.874 94.1193 190.276 94.348L192.609 95.6553C192.768 95.7469 192.827 95.943 192.735 96.0998C192.642 96.2567 192.445 96.309 192.287 96.224L189.954 94.9167C189.756 94.8056 189.525 94.8056 189.327 94.9167C189.136 95.0278 189.031 95.2109 189.031 95.4266V97.6294C189.031 97.8124 188.886 97.9562 188.701 97.9562H188.695Z" fill="white"/>
        <path d="M192.445 128.273C192.392 128.273 192.333 128.26 192.28 128.234L190.105 127.011C189.031 126.41 188.365 125.286 188.365 124.076V122.044C188.365 121.861 188.51 121.717 188.695 121.717C188.879 121.717 189.024 121.861 189.024 122.044V124.076C189.024 125.05 189.565 125.952 190.428 126.443L192.603 127.665C192.761 127.757 192.82 127.953 192.728 128.11C192.669 128.214 192.557 128.273 192.445 128.273Z" fill="white"/>
        <path d="M212.123 139.188C211.905 139.188 211.688 139.129 211.49 139.018L209.157 137.711C208.999 137.619 208.94 137.423 209.032 137.267C209.124 137.11 209.322 137.057 209.48 137.142L211.813 138.45C212.011 138.561 212.248 138.561 212.439 138.45C212.63 138.339 212.736 138.155 212.736 137.94V135.737C212.736 135.554 212.881 135.41 213.065 135.41C213.25 135.41 213.395 135.554 213.395 135.737V137.94C213.395 138.384 213.164 138.783 212.769 139.012C212.564 139.129 212.34 139.188 212.123 139.188Z" fill="white"/>
        <path d="M213.073 111.651C212.889 111.651 212.744 111.507 212.744 111.324V109.291C212.744 108.318 212.203 107.415 211.34 106.925L209.165 105.703C209.007 105.611 208.948 105.415 209.04 105.258C209.132 105.102 209.33 105.049 209.488 105.134L211.663 106.357C212.737 106.958 213.403 108.082 213.403 109.291V111.324C213.403 111.507 213.258 111.651 213.073 111.651Z" fill="white"/>
        <path d="M191.622 108.951C191.668 112.815 192.301 116.534 193.211 119.933C195.721 129.3 205.594 135.065 208.309 128.718C209.39 126.188 210.148 122.959 210.148 118.88C210.148 113.128 205.996 106.134 200.882 103.258C195.662 100.33 191.543 103.049 191.622 108.951Z" fill="white"/>
        <path d="M200.551 114.188V120.345L197.855 118.345L200.551 114.188Z" fill="#E0E0E0"/>
        <path d="M195.535 110.507C195.535 111.056 195.931 111.729 196.425 112.004C196.913 112.278 197.315 112.056 197.315 111.507C197.315 110.958 196.919 110.285 196.425 110.01C195.937 109.736 195.535 109.958 195.535 110.507Z" fill="#E0E0E0"/>
        <path d="M203.793 115.2C203.793 115.749 204.188 116.423 204.683 116.697C205.17 116.972 205.572 116.75 205.572 116.2C205.572 115.651 205.177 114.978 204.683 114.704C204.195 114.429 203.793 114.651 203.793 115.2Z" fill="#E0E0E0"/>
        <path d="M199.668 123.358L202.68 122.848C202.68 122.848 202.041 126.037 199.668 123.358Z" fill="#E0E0E0"/>
        <path d="M151.087 129.102C151.087 129.102 155.891 128.782 158.613 135.403C160.307 139.521 162.37 145.882 163.688 150.104C164.505 152.732 163.661 155.582 161.539 157.347L153.163 164.315L150.164 158.909C150.164 158.909 153.393 154.634 155.885 152.425L150.164 135.397L151.08 129.096L151.087 129.102Z" fill="#FFA8A7"/>
        <path d="M153.301 149.326C153.301 149.326 160.933 150.326 162.837 144.489C162.837 144.489 159.568 135.946 158.066 133.109C156.57 130.272 153.499 128.213 151.08 129.108C148.661 130.004 153.294 149.326 153.294 149.326H153.301Z" fill="#FFBB38"/>
        <path opacity="0.4" d="M153.301 149.326C153.301 149.326 160.933 150.326 162.837 144.489C162.837 144.489 159.568 135.946 158.066 133.109C156.57 130.272 153.499 128.213 151.08 129.108C148.661 130.004 153.294 149.326 153.294 149.326H153.301Z" fill="white"/>
        <path d="M148.212 225.973C148.212 225.973 144.588 222.894 143.177 222.75C141.767 222.606 139.328 224.999 141.391 229.156C141.965 230.313 144.298 231.562 145.754 233.777C147.211 235.993 148.522 237.654 150.756 237.353C152.99 237.052 153.28 235.797 153.135 234.353C152.99 232.908 152.331 230.431 152.331 230.431L148.219 225.979L148.212 225.973Z" fill="#37474F"/>
        <path d="M150.869 236.686C148.569 237 147.218 235.281 145.715 233C144.213 230.718 141.814 229.424 141.221 228.234C140.964 227.712 140.772 227.215 140.641 226.744C140.726 227.463 140.95 228.261 141.392 229.15C141.965 230.307 144.298 231.555 145.755 233.771C147.211 235.987 148.523 237.647 150.757 237.346C152.47 237.118 153.037 236.327 153.143 235.32C152.846 236 152.2 236.503 150.876 236.686H150.869Z" fill="#263238"/>
        <path d="M146.275 229.935C146.223 229.935 146.163 229.922 146.111 229.896C145.939 229.804 145.873 229.595 145.966 229.425C146.012 229.34 147.145 227.275 149.379 226.771C149.571 226.725 149.755 226.85 149.801 227.033C149.847 227.222 149.722 227.405 149.538 227.451C147.626 227.882 146.605 229.732 146.592 229.752C146.526 229.87 146.407 229.935 146.282 229.935H146.275Z" fill="#EBEBEB"/>
        <path d="M144.924 228.693C144.864 228.693 144.812 228.68 144.759 228.654C144.588 228.562 144.522 228.353 144.614 228.183C144.66 228.098 145.794 226.032 148.028 225.529C148.219 225.483 148.404 225.607 148.45 225.791C148.496 225.974 148.371 226.163 148.186 226.209C146.275 226.64 145.253 228.49 145.24 228.51C145.174 228.627 145.056 228.693 144.93 228.693H144.924Z" fill="#EBEBEB"/>
        <path d="M143.375 227.458C143.322 227.458 143.263 227.445 143.21 227.419C143.039 227.328 142.973 227.118 143.065 226.949C143.111 226.864 144.245 224.798 146.472 224.295C146.664 224.249 146.848 224.373 146.894 224.556C146.94 224.739 146.815 224.929 146.631 224.974C144.719 225.406 143.698 227.256 143.685 227.275C143.619 227.393 143.5 227.458 143.375 227.458Z" fill="#EBEBEB"/>
        <path d="M128.915 236.073C128.915 236.073 124.058 234.511 122.608 234.943C121.158 235.374 119.741 238.734 123.498 241.995C124.546 242.904 127.36 243.192 129.719 244.78C132.072 246.375 134.062 247.48 136.138 246.27C138.221 245.061 138.05 243.669 137.68 242.159C137.206 240.237 136.83 238.838 136.83 238.838L128.922 236.067L128.915 236.073Z" fill="#37474F"/>
        <path d="M135.975 245.569C133.833 246.818 131.784 245.674 129.359 244.027C126.933 242.386 124.027 242.092 122.946 241.157C122.472 240.745 122.083 240.334 121.76 239.922C122.142 240.595 122.696 241.295 123.493 241.987C124.541 242.896 127.355 243.184 129.714 244.772C132.067 246.367 134.057 247.472 136.133 246.262C137.728 245.334 137.959 244.328 137.649 243.288C137.636 244.079 137.208 244.844 135.975 245.563V245.569Z" fill="#263238"/>
        <path d="M127.755 240.524C127.755 240.524 127.729 240.524 127.722 240.524C127.531 240.505 127.386 240.335 127.406 240.145C127.419 240.04 127.676 237.557 129.667 236.151C129.825 236.04 130.042 236.079 130.161 236.236C130.273 236.393 130.233 236.609 130.075 236.726C128.355 237.936 128.111 240.191 128.111 240.217C128.092 240.4 127.94 240.531 127.762 240.531L127.755 240.524Z" fill="#EBEBEB"/>
        <path d="M129.759 241.178C129.759 241.178 129.733 241.178 129.726 241.178C129.535 241.159 129.39 240.989 129.41 240.799C129.423 240.695 129.68 238.211 131.671 236.805C131.829 236.694 132.046 236.727 132.165 236.89C132.277 237.047 132.237 237.263 132.079 237.381C130.359 238.59 130.115 240.845 130.115 240.871C130.095 241.054 129.944 241.185 129.766 241.185L129.759 241.178Z" fill="#EBEBEB"/>
        <path d="M125.904 239.85C125.904 239.85 125.877 239.85 125.871 239.85C125.68 239.831 125.535 239.661 125.555 239.471C125.568 239.367 125.825 236.883 127.815 235.477C127.973 235.366 128.191 235.406 128.309 235.562C128.421 235.719 128.382 235.935 128.224 236.053C126.504 237.262 126.26 239.517 126.26 239.543C126.24 239.726 126.088 239.857 125.91 239.857L125.904 239.85Z" fill="#EBEBEB"/>
        <path d="M152.557 226.896C152.992 222.124 153.934 214.646 154.33 211.149C155.028 204.9 154.389 200.135 153.947 197.874C153.75 196.834 153.69 195.788 153.796 194.736C154.751 185.232 155.371 169.825 154.844 166.439L141.393 169.263C141.393 169.263 143.04 190.88 143.759 198.063C144.483 205.299 147.192 226.955 147.192 226.955C148.319 227.608 150.362 228.327 152.557 226.889V226.896Z" fill="#455A64"/>
        <path d="M150.613 231.798C151.779 231.615 152.326 230.425 152.326 230.425C152.326 229.673 152.412 228.418 152.55 226.889C150.356 228.327 148.313 227.608 147.186 226.954L147.66 230.967C148.207 231.582 149.446 231.981 150.606 231.798H150.613Z" fill="#FFA8A7"/>
        <path d="M137.418 235.281C137.965 228.059 139.026 214.057 139.171 211.861C139.316 209.645 139.065 206.586 138.709 204.599C138.479 203.305 138.499 201.978 138.729 200.684L144.641 168.151L128.382 167.916L127.321 201.997C127.308 202.435 127.321 202.88 127.374 203.318L130.821 235.085C130.821 235.085 134.182 237.883 137.424 235.288L137.418 235.281Z" fill="#455A64"/>
        <path d="M134.709 241.243C135.875 241.132 136.93 240.158 137.094 239.582C137.094 239.582 137.226 237.857 137.424 235.275C134.188 237.87 130.82 235.072 130.82 235.072L131.334 239.837C131.334 239.837 132.099 241.485 134.709 241.243Z" fill="#FFA8A7"/>
        <path d="M135.895 131.273L132.059 132.574L127.934 151.928L128.131 169.093C128.131 169.093 131.077 171.42 142.584 171.42C149.043 171.42 153.247 169.008 154.836 166.439L153.801 156.073C153.801 156.073 154.836 145.856 154.836 140.803C154.836 135.75 155.06 131.613 151.086 129.109L147.54 129.397L135.888 131.273H135.895Z" fill="#FFBB38"/>
        <path opacity="0.2" d="M135.895 131.273L132.059 132.574L127.934 151.928L128.131 169.093C128.131 169.093 131.077 171.42 142.584 171.42C149.043 171.42 153.247 169.008 154.836 166.439L153.801 156.073C153.801 156.073 154.836 145.856 154.836 140.803C154.836 135.75 155.06 131.613 151.086 129.109L147.54 129.397L135.888 131.273H135.895Z" fill="white"/>
        <path d="M131.73 114.637L129.812 118.408C129.693 118.644 129.812 118.925 130.062 119.01L132.343 119.761L131.736 114.643L131.73 114.637Z" fill="#F28F8F"/>
        <path d="M134.393 108.316C134.393 108.316 131.48 109.872 131.48 118.801C131.48 123.71 131.823 126.841 134.393 126.651C136.964 126.462 144.371 125.494 144.371 125.494V108.316H134.393Z" fill="#FFA8A7"/>
        <path d="M134.393 126.65C135.296 126.585 136.799 126.422 138.367 126.239V125.33C136.924 126.062 134.354 126.579 133.965 126.65C134.103 126.664 134.242 126.664 134.393 126.65Z" fill="#F28F8F"/>
        <path d="M137.918 124.946V130.548H145.649V122.678L137.918 124.946Z" fill="#FFA8A7"/>
        <path d="M137.919 128.417C137.919 128.417 140.7 129.397 142.934 129.012C145.168 128.626 145.649 127.279 145.649 127.279C145.649 127.279 146.374 127.227 147.541 129.397C147.541 129.397 146.176 132.103 143.026 132.286C138.9 132.528 135.889 131.273 135.889 131.273C135.889 131.273 136.963 128.136 137.919 128.417Z" fill="#FFBB38"/>
        <path opacity="0.4" d="M137.919 128.417C137.919 128.417 140.7 129.397 142.934 129.012C145.168 128.626 145.649 127.279 145.649 127.279C145.649 127.279 146.374 127.227 147.541 129.397C147.541 129.397 146.176 132.103 143.026 132.286C138.9 132.528 135.889 131.273 135.889 131.273C135.889 131.273 136.963 128.136 137.919 128.417Z" fill="white"/>
        <path d="M120.678 145.045L118.602 148.215C118.602 148.215 113.56 145.986 110.021 144.633C106.482 143.28 104.367 141.404 104.367 141.404C104.367 141.404 104.637 138.724 105.046 137.351C105.454 135.985 105.593 134.835 104.367 135.443C103.141 136.051 102.324 138.417 102.258 138.685C102.258 138.685 95.1731 131.625 94.29 131.776C93.4069 131.926 93.6112 132.992 95.5158 135.168L97.4204 137.345C97.4204 137.345 93.0773 139.829 93.7825 142.528C94.4877 145.228 100.215 146.45 100.215 146.45C100.215 146.45 116.968 159.223 120.685 156.922C124.402 154.628 129.648 147.999 129.648 147.999L120.685 145.032L120.678 145.045Z" fill="#FFA8A7"/>
        <path d="M133.582 132.076C133.582 132.076 136.673 134.599 134.656 139.815C132.639 145.032 127.499 151.333 127.499 151.333C127.499 151.333 122.101 149.673 120.025 145.345L126.827 134.789C127.809 133.266 129.456 132.292 131.282 132.174C131.921 132.135 132.686 132.096 133.588 132.076H133.582Z" fill="#FFBB38"/>
        <path opacity="0.4" d="M133.582 132.076C133.582 132.076 136.673 134.599 134.656 139.815C132.639 145.032 127.499 151.333 127.499 151.333C127.499 151.333 122.101 149.673 120.025 145.345L126.827 134.789C127.809 133.266 129.456 132.292 131.282 132.174C131.921 132.135 132.686 132.096 133.588 132.076H133.582Z" fill="white"/>
        <path d="M133.272 103.061C133.272 103.061 130.214 102.655 129.436 104.747C128.949 106.048 130.504 107.061 130.504 107.061C130.504 107.061 128.534 108.898 131.473 109.467C131.473 109.467 131.229 111.97 133.852 111.63C133.852 111.63 133.509 113.617 136.086 114.31C136.086 114.31 134.788 117.748 137.233 117.794H139.526L138.604 120.441C138.604 120.441 140.317 124.533 145.655 124.533C145.655 124.533 147.013 121.742 147.646 120.925C148.278 120.108 151.58 115.918 151.58 112.598C151.58 109.277 150.289 107.309 148.509 106.872C148.509 106.872 147.745 105.041 145.952 103.839C144.159 102.636 140.37 101.564 138.235 103.035C138.235 103.035 136.343 100.57 135.032 100.57C133.72 100.57 133.285 101.91 133.285 103.067L133.272 103.061Z" fill="#263238"/>
        <path d="M137.232 117.795C137.232 117.795 137.008 114.311 139.967 114.311C142.927 114.311 142.228 120.442 138.597 120.442L137.232 117.795Z" fill="#FFA8A7"/>
    </g>
    <defs>
        <clipPath id="clip0_5462_2976">
            <rect width="223" height="246.787" fill="white"/>
        </clipPath>
    </defs>
</svg>
